<svg width="157" height="157" viewBox="0 0 157 157" fill="none" xmlns="http://www.w3.org/2000/svg">
<path d="M59.6219 25.5176C44.4418 31.4811 29.8039 37.9868 23.8403 45.3058C17.8767 52.6248 5.67838 72.9553 7.84696 98.9783C10.0155 125.001 29.8038 150.482 65.5854 150.482C101.367 150.482 120.342 136.115 132.269 121.206" stroke="white" stroke-width="3.26493" stroke-linecap="round" stroke-linejoin="round"/>
<path d="M46.2012 30.8546C46.5466 21.18 50.002 8.91412 51.5567 6.84099C53.1114 4.76787 57.2577 8.39581 62.0949 11.851C65.9647 14.6151 70.7329 20.0282 72.6332 22.3893C80.2922 22.9075 98.2016 24.6351 108.567 27.3993C116.86 20.1434 121.179 10.6417 127.398 10.4689C133.617 10.2961 136.9 14.6151 140.182 24.4624C142.808 32.3402 142.428 46.6332 141.91 52.7949C144.501 57.9201 150.098 71.5566 151.757 85.1009C153.415 98.6452 152.448 129.756 151.757 143.618" stroke="white" stroke-width="3.26493" stroke-linecap="round" stroke-linejoin="round"/>
<path d="M9.52955 111.659C6.28579 118.337 4.52072 129.547 4.0437 134.317" stroke="white" stroke-width="3.26493" stroke-linecap="round" stroke-linejoin="round"/>
<path d="M65.9099 70.9009C68.8857 64.1719 72.2773 60.5472 78.1263 60.1239C82.8322 59.7832 87.7846 64.9022 89.7163 67.4582C88.7243 70.5879 83.5581 78.6079 76.698 77.3479" stroke="white" stroke-width="3.26493" stroke-linecap="round" stroke-linejoin="round"/>
<path d="M33.7566 58.8177C35.6283 55.2081 39.3046 52.5343 42.5133 52.9354C45.0802 53.2562 47.0365 57.1911 47.5935 58.8177C46.9696 62.2936 44.171 68.7509 37.9678 66.7722" stroke="white" stroke-width="3.26493" stroke-linecap="round" stroke-linejoin="round"/>
<path d="M30.133 86.3951C28.0996 82.7704 26.1915 85.4005 25.4916 87.1687C24.7917 84.7375 25.0496 79.5435 31.6801 78.2174C38.3107 76.8914 45.0518 81.2012 47.5935 83.5218C45.9727 88.1264 41.0071 97.1366 34.1113 96.341C30.133 95.8819 27.2364 91.5984 25.7939 87.9706" stroke="white" stroke-width="3.26493" stroke-linecap="round" stroke-linejoin="round"/>
<path d="M37.3201 86.9954C38.8818 85.1234 42.0157 86.9954 43.6093 90.2345" stroke="white" stroke-width="3.26493" stroke-linecap="round" stroke-linejoin="round"/>
<path d="M22.8008 101.917C26.1383 103.475 30.8665 102.566 32.8133 101.917" stroke="white" stroke-width="3.26493" stroke-linecap="round" stroke-linejoin="round"/>
<path d="M32.3962 96.772C33.7869 103.169 33.3697 103.169 37.8197 105.116C42.2697 107.063 48.3884 108.87 53.1164 109.427C56.8989 109.872 63.2216 108.314 65.9101 107.48" stroke="white" stroke-width="3.26493" stroke-linecap="round" stroke-linejoin="round"/>
<path d="M16.1565 57.7053C20.9078 51.0047 26.8775 48.9336 30.1669 51.492" stroke="white" stroke-width="3.26493" stroke-linecap="round" stroke-linejoin="round"/>
<path d="M26.146 66.8425C26.5359 72.4954 28.9075 76.5077 30.0446 77.8072" stroke="white" stroke-width="3.26493" stroke-linecap="round" stroke-linejoin="round"/>
<path d="M48.509 83.6823C58.7547 81.8893 68.5099 87.5244 76.1941 88.0367C83.8783 88.549 90.6395 80.4103 101.397 74.519C112.155 68.6278 134.06 67.8017 140.976 88.0367" stroke="white" stroke-width="3.26493" stroke-linecap="round" stroke-linejoin="round"/>
<path d="M51.9114 92.698C52.3592 93.2098 52.2826 93.1375 52.2826 93.1375" stroke="white" stroke-width="3.26493" stroke-linecap="round" stroke-linejoin="round"/>
<path d="M53.2268 99.8933C53.6746 100.405 53.598 100.333 53.598 100.333" stroke="white" stroke-width="3.26493" stroke-linecap="round" stroke-linejoin="round"/>
<path d="M59.4939 95.1738C59.9417 95.6856 59.8651 95.6133 59.8651 95.6133" stroke="white" stroke-width="3.26493" stroke-linecap="round" stroke-linejoin="round"/>
<path d="M131.824 54.5247C129.427 51.9622 123.045 45.9196 116.697 42.2494C118.185 32.4539 122.648 21.7905 126.492 19.6826" stroke="white" stroke-width="3.26493" stroke-linecap="round" stroke-linejoin="round"/>
<ellipse cx="42.222" cy="60.1076" rx="3.97913" ry="5.36588" fill="white"/>
<ellipse cx="81.3288" cy="68.3324" rx="6.92621" ry="6.59315" fill="white"/>
</svg>
