<svg width="368" height="369" viewBox="0 0 368 369" fill="none" xmlns="http://www.w3.org/2000/svg">
<path d="M248.477 311.73L244.744 293.066" stroke="#FF00C7" stroke-width="7.66232" stroke-linecap="round" stroke-linejoin="round"/>
<ellipse cx="199.078" cy="88.3" rx="21.0631" ry="17.6342" stroke="#FF00C7" stroke-width="7.66232"/>
<path d="M186.233 123.666C190.298 124.699 194.61 125.255 199.078 125.255C212.842 125.255 225.135 119.981 233.229 111.714" stroke="#FF00C7" stroke-width="7.66232" stroke-linecap="round"/>
<path d="M71.6332 139.909C71.6332 55.5707 121.332 8.13071 209.686 8.13071C298.04 8.13071 347.739 55.5707 347.739 139.909C347.739 224.246 298.04 271.686 209.686 271.686C121.332 271.686 71.6332 224.246 71.6332 139.909Z" stroke="#FF00C7" stroke-width="7.66232" stroke-linejoin="round"/>
<ellipse cx="299.527" cy="106.966" rx="21.0631" ry="17.6342" stroke="#FF00C7" stroke-width="7.66232"/>
<path d="M122.96 67.5642C122.96 74.685 117.22 80.4576 110.141 80.4576" stroke="#FF00C7" stroke-width="7.66232" stroke-linecap="round"/>
<path d="M118.004 97.0172C123.039 91.982 131.179 91.9584 136.186 96.9645" stroke="#FF00C7" stroke-width="7.66232" stroke-linecap="round"/>
<path d="M137.739 71.3579C137.739 78.4788 143.478 84.2514 150.558 84.2514" stroke="#FF00C7" stroke-width="7.66232" stroke-linecap="round"/>
<path d="M105.439 234.697C81.9104 253.248 31.9347 294.966 20.2608 313.427M226.382 271.164C202.403 305.527 189.937 325.264 170.935 360.597" stroke="#FF00C7" stroke-width="7.66232" stroke-linecap="round" stroke-linejoin="round"/>
<path d="M103.064 270.668L156.682 325.983L258.828 310.033L266.803 316.481L276.983 307.318" stroke="#FF00C7" stroke-width="7.66232" stroke-linecap="round" stroke-linejoin="round"/>
<path d="M259.07 310.281L264.427 292.388" stroke="#FF00C7" stroke-width="7.66232" stroke-linecap="round" stroke-linejoin="round"/>
<path d="M206.508 300.376L258.488 346.005L311.767 309.694" stroke="#FF00C7" stroke-width="7.66232" stroke-linecap="round" stroke-linejoin="round"/>
<path d="M311.767 309.693L302.944 298.495" stroke="#FF00C7" stroke-width="7.66232" stroke-linecap="round" stroke-linejoin="round"/>
<path d="M333.825 304.264L323.305 312.748L311.767 309.694L321.269 295.78" stroke="#FF00C7" stroke-width="7.66232" stroke-linecap="round" stroke-linejoin="round"/>
<path d="M213.332 75.2001C223.852 82.2135 245.932 86.0595 247.968 75.2001C250.004 64.3408 223.535 41.9433 223.535 41.9433" stroke="#FF00C7" stroke-width="7.66232" stroke-linecap="round" stroke-linejoin="round"/>
<path d="M291.991 90.3809C291.991 90.3809 264.258 90.1314 265.616 81.6475C266.973 73.1636 280.118 65.5488 293.093 61.2862" stroke="#FF00C7" stroke-width="7.66232" stroke-linecap="round" stroke-linejoin="round"/>
<path d="M219.462 213.996C218.72 237.289 241.438 244.993 261.187 243.723C267.21 243.336 271.738 238.493 272.902 232.571L274.816 222.825L283.074 206.143C287.279 197.65 281.1 187.695 271.622 187.695V187.695C269.075 187.695 266.586 186.934 264.474 185.509L257.995 181.136C251.988 177.082 243.962 177.791 238.757 182.834L224.826 196.336" stroke="#FF00C7" stroke-width="7.66232" stroke-linecap="round" stroke-linejoin="round"/>
<path d="M278.51 105.403C278.737 113.773 282.092 135.152 286.316 147.822C291.858 164.45 274.152 172.929 258.149 164.45C254.172 160.583 253.487 156.119 245.593 153.93C237.698 151.742 231.34 160.717 231.34 160.717" stroke="#FF00C7" stroke-width="7.66232" stroke-linecap="round" stroke-linejoin="round"/>
<path d="M221.474 210.943C235.993 219.704 263.257 228.085 274.272 224.831" stroke="#FF00C7" stroke-width="7.66232" stroke-linecap="round" stroke-linejoin="round"/>
<path d="M232.608 188.674C246.179 198.842 271.371 208.905 282.656 206.767" stroke="#FF00C7" stroke-width="7.66232" stroke-linecap="round" stroke-linejoin="round"/>
<path d="M222.421 181.614C227.85 202.774 224.097 211.589 209.961 223.98" stroke="#FF00C7" stroke-width="7.66232" stroke-linecap="round" stroke-linejoin="round"/>
<path fill-rule="evenodd" clip-rule="evenodd" d="M299.497 98.3479C294.738 98.3479 290.88 102.206 290.88 106.965C290.88 111.725 294.738 115.583 299.497 115.583C304.257 115.583 308.115 111.725 308.115 106.965C308.115 102.206 304.257 98.3479 299.497 98.3479Z" fill="#FF00C7"/>
<path fill-rule="evenodd" clip-rule="evenodd" d="M198.37 79.9874C193.611 79.9874 189.752 83.8456 189.752 88.6048C189.752 93.3641 193.611 97.2222 198.37 97.2222C203.129 97.2222 206.987 93.364 206.987 88.6048C206.987 83.8455 203.129 79.9874 198.37 79.9874Z" fill="#FF00C7"/>
</svg>
